M48
;DRILL file {KiCad 4.0.5+dfsg1-4} date Thu Feb 21 19:38:03 2019
;FORMAT={-:-/ absolute / metric / decimal}
FMAT,2
METRIC,TZ
T1C0.600
T2C0.700
T3C0.800
T4C1.000
T5C1.520
%
G90
G05
M71
T1
X0.Y0.
T2
X11.688Y-60.689
X12.167Y-17.121
X13.604Y-46.426
X14.001Y-65.661
X14.183Y-40.417
X14.683Y-48.488
X15.408Y-67.347
X16.749Y-37.491
X18.451Y-65.025
X19.364Y-57.906
X19.846Y-56.583
X21.641Y-38.557
X22.373Y-48.349
X29.769Y-37.211
X31.193Y-46.444
X32.904Y-48.407
X33.227Y-45.385
X35.206Y-47.134
X37.829Y-56.57
X38.081Y-54.628
X38.088Y-69.723
X38.437Y-17.776
X39.663Y-67.548
X52.422Y-33.468
X58.42Y-72.834
T3
X4.572Y-40.132
X4.572Y-43.942
X9.652Y-40.132
X9.652Y-43.942
X16.002Y-58.46
X16.002Y-60.96
X22.392Y-72.898
X24.892Y-72.898
X25.948Y-47.498
X28.448Y-47.498
X28.702Y-69.596
X28.702Y-74.676
X38.608Y-58.674
X38.608Y-61.174
X43.688Y-54.61
X43.688Y-59.51
X48.768Y-54.61
X48.768Y-59.69
X49.53Y-42.926
X52.03Y-42.926
X52.872Y-54.61
X52.872Y-59.69
X55.372Y-54.61
X55.372Y-59.69
X55.412Y-42.926
X57.912Y-42.926
T4
X8.128Y-58.166
X8.128Y-60.706
X8.382Y-66.294
X8.382Y-68.834
X9.398Y-74.93
X11.938Y-74.93
X19.177Y-42.164
X21.717Y-42.164
X24.257Y-42.164
X26.797Y-42.164
X29.337Y-42.164
X31.877Y-42.164
X34.417Y-42.164
X40.576Y-74.422
X43.116Y-74.422
X45.656Y-74.422
X48.196Y-74.422
X50.736Y-74.422
X53.276Y-74.422
T5
X52.832Y-17.272
X52.832Y-22.352
T0
M30
