G04 #@! TF.FileFunction,Copper,L1,Top,Signal*
%FSLAX46Y46*%
G04 Gerber Fmt 4.6, Leading zero omitted, Abs format (unit mm)*
G04 Created by KiCad (PCBNEW 4.0.5+dfsg1-4) date Fri Sep 27 11:48:37 2019*
%MOMM*%
%LPD*%
G01*
G04 APERTURE LIST*
%ADD10C,0.100000*%
%ADD11C,0.300000*%
%ADD12C,0.250000*%
%ADD13C,0.500000*%
%ADD14C,0.600000*%
%ADD15R,1.600000X1.600000*%
%ADD16C,1.600000*%
%ADD17R,1.700000X1.700000*%
%ADD18O,1.700000X1.700000*%
%ADD19R,3.000000X3.000000*%
%ADD20C,3.000000*%
%ADD21R,1.500000X0.550000*%
%ADD22R,0.550000X1.500000*%
%ADD23R,2.000000X3.800000*%
%ADD24R,2.000000X1.500000*%
%ADD25R,2.032000X2.032000*%
%ADD26C,1.500000*%
%ADD27C,1.000000*%
%ADD28C,0.400000*%
%ADD29C,0.800000*%
%ADD30C,0.254000*%
G04 APERTURE END LIST*
D10*
D11*
X15355214Y-74243500D02*
X15212357Y-74172071D01*
X14998071Y-74172071D01*
X14783786Y-74243500D01*
X14640928Y-74386357D01*
X14569500Y-74529214D01*
X14498071Y-74814929D01*
X14498071Y-75029214D01*
X14569500Y-75314929D01*
X14640928Y-75457786D01*
X14783786Y-75600643D01*
X14998071Y-75672071D01*
X15140928Y-75672071D01*
X15355214Y-75600643D01*
X15426643Y-75529214D01*
X15426643Y-75029214D01*
X15140928Y-75029214D01*
X16069500Y-74672071D02*
X16069500Y-75672071D01*
X16069500Y-74814929D02*
X16140928Y-74743500D01*
X16283786Y-74672071D01*
X16498071Y-74672071D01*
X16640928Y-74743500D01*
X16712357Y-74886357D01*
X16712357Y-75672071D01*
X18069500Y-75672071D02*
X18069500Y-74172071D01*
X18069500Y-75600643D02*
X17926643Y-75672071D01*
X17640929Y-75672071D01*
X17498071Y-75600643D01*
X17426643Y-75529214D01*
X17355214Y-75386357D01*
X17355214Y-74957786D01*
X17426643Y-74814929D01*
X17498071Y-74743500D01*
X17640929Y-74672071D01*
X17926643Y-74672071D01*
X18069500Y-74743500D01*
D12*
X2182881Y-62245667D02*
X2992405Y-62245667D01*
X3087643Y-62198048D01*
X3135262Y-62150429D01*
X3182881Y-62055191D01*
X3182881Y-61864714D01*
X3135262Y-61769476D01*
X3087643Y-61721857D01*
X2992405Y-61674238D01*
X2182881Y-61674238D01*
X2278119Y-61245667D02*
X2230500Y-61198048D01*
X2182881Y-61102810D01*
X2182881Y-60864714D01*
X2230500Y-60769476D01*
X2278119Y-60721857D01*
X2373357Y-60674238D01*
X2468595Y-60674238D01*
X2611452Y-60721857D01*
X3182881Y-61293286D01*
X3182881Y-60674238D01*
X3182881Y-59674238D02*
X2706690Y-60007572D01*
X3182881Y-60245667D02*
X2182881Y-60245667D01*
X2182881Y-59864714D01*
X2230500Y-59769476D01*
X2278119Y-59721857D01*
X2373357Y-59674238D01*
X2516214Y-59674238D01*
X2611452Y-59721857D01*
X2659071Y-59769476D01*
X2706690Y-59864714D01*
X2706690Y-60245667D01*
X3182881Y-59340905D02*
X2516214Y-58817095D01*
X2516214Y-59340905D02*
X3182881Y-58817095D01*
X2182881Y-57427619D02*
X2992405Y-57427619D01*
X3087643Y-57380000D01*
X3135262Y-57332381D01*
X3182881Y-57237143D01*
X3182881Y-57046666D01*
X3135262Y-56951428D01*
X3087643Y-56903809D01*
X2992405Y-56856190D01*
X2182881Y-56856190D01*
X2278119Y-56427619D02*
X2230500Y-56380000D01*
X2182881Y-56284762D01*
X2182881Y-56046666D01*
X2230500Y-55951428D01*
X2278119Y-55903809D01*
X2373357Y-55856190D01*
X2468595Y-55856190D01*
X2611452Y-55903809D01*
X3182881Y-56475238D01*
X3182881Y-55856190D01*
X2182881Y-55570476D02*
X2182881Y-54999047D01*
X3182881Y-55284762D02*
X2182881Y-55284762D01*
X3182881Y-54760952D02*
X2516214Y-54237142D01*
X2516214Y-54760952D02*
X3182881Y-54237142D01*
X2182881Y-71834167D02*
X2992405Y-71834167D01*
X3087643Y-71786548D01*
X3135262Y-71738929D01*
X3182881Y-71643691D01*
X3182881Y-71453214D01*
X3135262Y-71357976D01*
X3087643Y-71310357D01*
X2992405Y-71262738D01*
X2182881Y-71262738D01*
X3182881Y-70262738D02*
X3182881Y-70834167D01*
X3182881Y-70548453D02*
X2182881Y-70548453D01*
X2325738Y-70643691D01*
X2420976Y-70738929D01*
X2468595Y-70834167D01*
X3182881Y-69262738D02*
X2706690Y-69596072D01*
X3182881Y-69834167D02*
X2182881Y-69834167D01*
X2182881Y-69453214D01*
X2230500Y-69357976D01*
X2278119Y-69310357D01*
X2373357Y-69262738D01*
X2516214Y-69262738D01*
X2611452Y-69310357D01*
X2659071Y-69357976D01*
X2706690Y-69453214D01*
X2706690Y-69834167D01*
X3182881Y-68929405D02*
X2516214Y-68405595D01*
X2516214Y-68929405D02*
X3182881Y-68405595D01*
X2182881Y-66698619D02*
X2992405Y-66698619D01*
X3087643Y-66651000D01*
X3135262Y-66603381D01*
X3182881Y-66508143D01*
X3182881Y-66317666D01*
X3135262Y-66222428D01*
X3087643Y-66174809D01*
X2992405Y-66127190D01*
X2182881Y-66127190D01*
X3182881Y-65127190D02*
X3182881Y-65698619D01*
X3182881Y-65412905D02*
X2182881Y-65412905D01*
X2325738Y-65508143D01*
X2420976Y-65603381D01*
X2468595Y-65698619D01*
X2182881Y-64841476D02*
X2182881Y-64270047D01*
X3182881Y-64555762D02*
X2182881Y-64555762D01*
X3182881Y-64031952D02*
X2516214Y-63508142D01*
X2516214Y-64031952D02*
X3182881Y-63508142D01*
D13*
X54072000Y-82382000D02*
X52572000Y-80882000D01*
X55572000Y-80882000D02*
X54072000Y-82382000D01*
X52572000Y-80882000D02*
X55572000Y-80882000D01*
D14*
X12786315Y-84145286D02*
X13214886Y-84288143D01*
X13929172Y-84288143D01*
X14214886Y-84145286D01*
X14357743Y-84002429D01*
X14500600Y-83716714D01*
X14500600Y-83431000D01*
X14357743Y-83145286D01*
X14214886Y-83002429D01*
X13929172Y-82859571D01*
X13357743Y-82716714D01*
X13072029Y-82573857D01*
X12929172Y-82431000D01*
X12786315Y-82145286D01*
X12786315Y-81859571D01*
X12929172Y-81573857D01*
X13072029Y-81431000D01*
X13357743Y-81288143D01*
X14072029Y-81288143D01*
X14500600Y-81431000D01*
X16357743Y-82859571D02*
X16357743Y-84288143D01*
X15357743Y-81288143D02*
X16357743Y-82859571D01*
X17357743Y-81288143D01*
X18214887Y-84145286D02*
X18643458Y-84288143D01*
X19357744Y-84288143D01*
X19643458Y-84145286D01*
X19786315Y-84002429D01*
X19929172Y-83716714D01*
X19929172Y-83431000D01*
X19786315Y-83145286D01*
X19643458Y-83002429D01*
X19357744Y-82859571D01*
X18786315Y-82716714D01*
X18500601Y-82573857D01*
X18357744Y-82431000D01*
X18214887Y-82145286D01*
X18214887Y-81859571D01*
X18357744Y-81573857D01*
X18500601Y-81431000D01*
X18786315Y-81288143D01*
X19500601Y-81288143D01*
X19929172Y-81431000D01*
X20786315Y-81288143D02*
X22500601Y-81288143D01*
X21643458Y-84288143D02*
X21643458Y-81288143D01*
D13*
X9572000Y-81382000D02*
G75*
G03X9572000Y-81382000I-4000000J0D01*
G01*
X7572000Y-81382000D02*
G75*
G03X7572000Y-81382000I-2000000J0D01*
G01*
X9572000Y-5382000D02*
G75*
G03X9572000Y-5382000I-4000000J0D01*
G01*
X7572000Y-5382000D02*
G75*
G03X7572000Y-5382000I-2000000J0D01*
G01*
X64572000Y-5382000D02*
G75*
G03X64572000Y-5382000I-4000000J0D01*
G01*
X62572000Y-5382000D02*
G75*
G03X62572000Y-5382000I-2000000J0D01*
G01*
X62572000Y-81382000D02*
G75*
G03X62572000Y-81382000I-2000000J0D01*
G01*
X64572000Y-81382000D02*
G75*
G03X64572000Y-81382000I-4000000J0D01*
G01*
X65532000Y-762000D02*
X762000Y-762000D01*
X65532000Y-85852000D02*
X65532000Y-762000D01*
X762000Y-85852000D02*
X65532000Y-85852000D01*
X762000Y-762000D02*
X762000Y-85852000D01*
D11*
X38501715Y-3655143D02*
X38716001Y-3726571D01*
X39073144Y-3726571D01*
X39216001Y-3655143D01*
X39287430Y-3583714D01*
X39358858Y-3440857D01*
X39358858Y-3298000D01*
X39287430Y-3155143D01*
X39216001Y-3083714D01*
X39073144Y-3012286D01*
X38787430Y-2940857D01*
X38644572Y-2869429D01*
X38573144Y-2798000D01*
X38501715Y-2655143D01*
X38501715Y-2512286D01*
X38573144Y-2369429D01*
X38644572Y-2298000D01*
X38787430Y-2226571D01*
X39144572Y-2226571D01*
X39358858Y-2298000D01*
X40001715Y-3726571D02*
X40001715Y-2226571D01*
X40358858Y-2226571D01*
X40573143Y-2298000D01*
X40716001Y-2440857D01*
X40787429Y-2583714D01*
X40858858Y-2869429D01*
X40858858Y-3083714D01*
X40787429Y-3369429D01*
X40716001Y-3512286D01*
X40573143Y-3655143D01*
X40358858Y-3726571D01*
X40001715Y-3726571D01*
X42358858Y-3583714D02*
X42287429Y-3655143D01*
X42073143Y-3726571D01*
X41930286Y-3726571D01*
X41716001Y-3655143D01*
X41573143Y-3512286D01*
X41501715Y-3369429D01*
X41430286Y-3083714D01*
X41430286Y-2869429D01*
X41501715Y-2583714D01*
X41573143Y-2440857D01*
X41716001Y-2298000D01*
X41930286Y-2226571D01*
X42073143Y-2226571D01*
X42287429Y-2298000D01*
X42358858Y-2369429D01*
X42858858Y-2226571D02*
X43787429Y-2226571D01*
X43287429Y-2798000D01*
X43501715Y-2798000D01*
X43644572Y-2869429D01*
X43716001Y-2940857D01*
X43787429Y-3083714D01*
X43787429Y-3440857D01*
X43716001Y-3583714D01*
X43644572Y-3655143D01*
X43501715Y-3726571D01*
X43073143Y-3726571D01*
X42930286Y-3655143D01*
X42858858Y-3583714D01*
X44716000Y-2226571D02*
X44858857Y-2226571D01*
X45001714Y-2298000D01*
X45073143Y-2369429D01*
X45144572Y-2512286D01*
X45216000Y-2798000D01*
X45216000Y-3155143D01*
X45144572Y-3440857D01*
X45073143Y-3583714D01*
X45001714Y-3655143D01*
X44858857Y-3726571D01*
X44716000Y-3726571D01*
X44573143Y-3655143D01*
X44501714Y-3583714D01*
X44430286Y-3440857D01*
X44358857Y-3155143D01*
X44358857Y-2798000D01*
X44430286Y-2512286D01*
X44501714Y-2369429D01*
X44573143Y-2298000D01*
X44716000Y-2226571D01*
X45858857Y-3155143D02*
X47001714Y-3155143D01*
X48358857Y-3655143D02*
X48216000Y-3726571D01*
X47930286Y-3726571D01*
X47787428Y-3655143D01*
X47716000Y-3583714D01*
X47644571Y-3440857D01*
X47644571Y-3012286D01*
X47716000Y-2869429D01*
X47787428Y-2798000D01*
X47930286Y-2726571D01*
X48216000Y-2726571D01*
X48358857Y-2798000D01*
X49216000Y-3726571D02*
X49073142Y-3655143D01*
X49001714Y-3583714D01*
X48930285Y-3440857D01*
X48930285Y-3012286D01*
X49001714Y-2869429D01*
X49073142Y-2798000D01*
X49216000Y-2726571D01*
X49430285Y-2726571D01*
X49573142Y-2798000D01*
X49644571Y-2869429D01*
X49716000Y-3012286D01*
X49716000Y-3440857D01*
X49644571Y-3583714D01*
X49573142Y-3655143D01*
X49430285Y-3726571D01*
X49216000Y-3726571D01*
X50358857Y-2726571D02*
X50358857Y-3726571D01*
X50358857Y-2869429D02*
X50430285Y-2798000D01*
X50573143Y-2726571D01*
X50787428Y-2726571D01*
X50930285Y-2798000D01*
X51001714Y-2940857D01*
X51001714Y-3726571D01*
X51716000Y-2726571D02*
X51716000Y-3726571D01*
X51716000Y-2869429D02*
X51787428Y-2798000D01*
X51930286Y-2726571D01*
X52144571Y-2726571D01*
X52287428Y-2798000D01*
X52358857Y-2940857D01*
X52358857Y-3726571D01*
X38264571Y-9524714D02*
X39764571Y-9024714D01*
X38264571Y-8524714D01*
X38264571Y-8167571D02*
X38264571Y-7239000D01*
X38836000Y-7739000D01*
X38836000Y-7524714D01*
X38907429Y-7381857D01*
X38978857Y-7310428D01*
X39121714Y-7239000D01*
X39478857Y-7239000D01*
X39621714Y-7310428D01*
X39693143Y-7381857D01*
X39764571Y-7524714D01*
X39764571Y-7953286D01*
X39693143Y-8096143D01*
X39621714Y-8167571D01*
X39621714Y-6596143D02*
X39693143Y-6524715D01*
X39764571Y-6596143D01*
X39693143Y-6667572D01*
X39621714Y-6596143D01*
X39764571Y-6596143D01*
X38264571Y-6024714D02*
X38264571Y-5096143D01*
X38836000Y-5596143D01*
X38836000Y-5381857D01*
X38907429Y-5239000D01*
X38978857Y-5167571D01*
X39121714Y-5096143D01*
X39478857Y-5096143D01*
X39621714Y-5167571D01*
X39693143Y-5239000D01*
X39764571Y-5381857D01*
X39764571Y-5810429D01*
X39693143Y-5953286D01*
X39621714Y-6024714D01*
X40886000Y-8203286D02*
X40814571Y-8346143D01*
X40814571Y-8560429D01*
X40886000Y-8774714D01*
X41028857Y-8917572D01*
X41171714Y-8989000D01*
X41457429Y-9060429D01*
X41671714Y-9060429D01*
X41957429Y-8989000D01*
X42100286Y-8917572D01*
X42243143Y-8774714D01*
X42314571Y-8560429D01*
X42314571Y-8417572D01*
X42243143Y-8203286D01*
X42171714Y-8131857D01*
X41671714Y-8131857D01*
X41671714Y-8417572D01*
X41314571Y-7489000D02*
X42314571Y-7489000D01*
X41457429Y-7489000D02*
X41386000Y-7417572D01*
X41314571Y-7274714D01*
X41314571Y-7060429D01*
X41386000Y-6917572D01*
X41528857Y-6846143D01*
X42314571Y-6846143D01*
X42314571Y-5489000D02*
X40814571Y-5489000D01*
X42243143Y-5489000D02*
X42314571Y-5631857D01*
X42314571Y-5917571D01*
X42243143Y-6060429D01*
X42171714Y-6131857D01*
X42028857Y-6203286D01*
X41600286Y-6203286D01*
X41457429Y-6131857D01*
X41386000Y-6060429D01*
X41314571Y-5917571D01*
X41314571Y-5631857D01*
X41386000Y-5489000D01*
X44793143Y-9024714D02*
X44864571Y-8810428D01*
X44864571Y-8453285D01*
X44793143Y-8310428D01*
X44721714Y-8238999D01*
X44578857Y-8167571D01*
X44436000Y-8167571D01*
X44293143Y-8238999D01*
X44221714Y-8310428D01*
X44150286Y-8453285D01*
X44078857Y-8738999D01*
X44007429Y-8881857D01*
X43936000Y-8953285D01*
X43793143Y-9024714D01*
X43650286Y-9024714D01*
X43507429Y-8953285D01*
X43436000Y-8881857D01*
X43364571Y-8738999D01*
X43364571Y-8381857D01*
X43436000Y-8167571D01*
X44721714Y-6667571D02*
X44793143Y-6739000D01*
X44864571Y-6953286D01*
X44864571Y-7096143D01*
X44793143Y-7310428D01*
X44650286Y-7453286D01*
X44507429Y-7524714D01*
X44221714Y-7596143D01*
X44007429Y-7596143D01*
X43721714Y-7524714D01*
X43578857Y-7453286D01*
X43436000Y-7310428D01*
X43364571Y-7096143D01*
X43364571Y-6953286D01*
X43436000Y-6739000D01*
X43507429Y-6667571D01*
X44864571Y-5310428D02*
X44864571Y-6024714D01*
X43364571Y-6024714D01*
X47343143Y-9060428D02*
X47414571Y-8846142D01*
X47414571Y-8488999D01*
X47343143Y-8346142D01*
X47271714Y-8274713D01*
X47128857Y-8203285D01*
X46986000Y-8203285D01*
X46843143Y-8274713D01*
X46771714Y-8346142D01*
X46700286Y-8488999D01*
X46628857Y-8774713D01*
X46557429Y-8917571D01*
X46486000Y-8988999D01*
X46343143Y-9060428D01*
X46200286Y-9060428D01*
X46057429Y-8988999D01*
X45986000Y-8917571D01*
X45914571Y-8774713D01*
X45914571Y-8417571D01*
X45986000Y-8203285D01*
X47414571Y-7560428D02*
X45914571Y-7560428D01*
X45914571Y-7203285D01*
X45986000Y-6989000D01*
X46128857Y-6846142D01*
X46271714Y-6774714D01*
X46557429Y-6703285D01*
X46771714Y-6703285D01*
X47057429Y-6774714D01*
X47200286Y-6846142D01*
X47343143Y-6989000D01*
X47414571Y-7203285D01*
X47414571Y-7560428D01*
X46986000Y-6131857D02*
X46986000Y-5417571D01*
X47414571Y-6274714D02*
X45914571Y-5774714D01*
X47414571Y-5274714D01*
X49964571Y-8167571D02*
X49250286Y-8667571D01*
X49964571Y-9024714D02*
X48464571Y-9024714D01*
X48464571Y-8453286D01*
X48536000Y-8310428D01*
X48607429Y-8239000D01*
X48750286Y-8167571D01*
X48964571Y-8167571D01*
X49107429Y-8239000D01*
X49178857Y-8310428D01*
X49250286Y-8453286D01*
X49250286Y-9024714D01*
X49964571Y-7524714D02*
X48464571Y-7524714D01*
X48464571Y-7167571D01*
X48536000Y-6953286D01*
X48678857Y-6810428D01*
X48821714Y-6739000D01*
X49107429Y-6667571D01*
X49321714Y-6667571D01*
X49607429Y-6739000D01*
X49750286Y-6810428D01*
X49893143Y-6953286D01*
X49964571Y-7167571D01*
X49964571Y-7524714D01*
X49250286Y-5739000D02*
X49964571Y-5739000D01*
X48464571Y-6239000D02*
X49250286Y-5739000D01*
X48464571Y-5239000D01*
X51943143Y-8739000D02*
X51943143Y-7596143D01*
X51943143Y-6881857D02*
X51943143Y-5739000D01*
X54993143Y-8953286D02*
X55064571Y-8739000D01*
X55064571Y-8381857D01*
X54993143Y-8239000D01*
X54921714Y-8167571D01*
X54778857Y-8096143D01*
X54636000Y-8096143D01*
X54493143Y-8167571D01*
X54421714Y-8239000D01*
X54350286Y-8381857D01*
X54278857Y-8667571D01*
X54207429Y-8810429D01*
X54136000Y-8881857D01*
X53993143Y-8953286D01*
X53850286Y-8953286D01*
X53707429Y-8881857D01*
X53636000Y-8810429D01*
X53564571Y-8667571D01*
X53564571Y-8310429D01*
X53636000Y-8096143D01*
X54278857Y-7453286D02*
X54278857Y-6953286D01*
X55064571Y-6739000D02*
X55064571Y-7453286D01*
X53564571Y-7453286D01*
X53564571Y-6739000D01*
X55064571Y-5381857D02*
X55064571Y-6096143D01*
X53564571Y-6096143D01*
X25485000Y-83965171D02*
X25485000Y-82465171D01*
X26056428Y-82465171D01*
X26199286Y-82536600D01*
X26270714Y-82608029D01*
X26342143Y-82750886D01*
X26342143Y-82965171D01*
X26270714Y-83108029D01*
X26199286Y-83179457D01*
X26056428Y-83250886D01*
X25485000Y-83250886D01*
X26913571Y-83536600D02*
X27627857Y-83536600D01*
X26770714Y-83965171D02*
X27270714Y-82465171D01*
X27770714Y-83965171D01*
X28270714Y-83965171D02*
X28270714Y-82465171D01*
X29127857Y-83965171D01*
X29127857Y-82465171D01*
X29842143Y-83393743D02*
X30985000Y-83393743D01*
X31699286Y-83179457D02*
X32199286Y-83179457D01*
X32413572Y-83965171D02*
X31699286Y-83965171D01*
X31699286Y-82465171D01*
X32413572Y-82465171D01*
X33056429Y-83965171D02*
X33056429Y-82465171D01*
X33913572Y-83965171D01*
X33913572Y-82465171D01*
X34627858Y-83965171D02*
X34627858Y-82465171D01*
X34985001Y-82465171D01*
X35199286Y-82536600D01*
X35342144Y-82679457D01*
X35413572Y-82822314D01*
X35485001Y-83108029D01*
X35485001Y-83322314D01*
X35413572Y-83608029D01*
X35342144Y-83750886D01*
X35199286Y-83893743D01*
X34985001Y-83965171D01*
X34627858Y-83965171D01*
X36127858Y-83393743D02*
X37270715Y-83393743D01*
X37985001Y-83965171D02*
X37985001Y-82465171D01*
X38342144Y-82465171D01*
X38556429Y-82536600D01*
X38699287Y-82679457D01*
X38770715Y-82822314D01*
X38842144Y-83108029D01*
X38842144Y-83322314D01*
X38770715Y-83608029D01*
X38699287Y-83750886D01*
X38556429Y-83893743D01*
X38342144Y-83965171D01*
X37985001Y-83965171D01*
X39485001Y-83179457D02*
X39985001Y-83179457D01*
X40199287Y-83965171D02*
X39485001Y-83965171D01*
X39485001Y-82465171D01*
X40199287Y-82465171D01*
X40627858Y-82465171D02*
X41127858Y-83965171D01*
X41627858Y-82465171D01*
X42127858Y-83393743D02*
X43270715Y-83393743D01*
X43842144Y-82965171D02*
X44199287Y-83965171D01*
X44556429Y-82965171D01*
X45127858Y-83393743D02*
X46270715Y-83393743D01*
X46913572Y-82608029D02*
X46985001Y-82536600D01*
X47127858Y-82465171D01*
X47485001Y-82465171D01*
X47627858Y-82536600D01*
X47699287Y-82608029D01*
X47770715Y-82750886D01*
X47770715Y-82893743D01*
X47699287Y-83108029D01*
X46842144Y-83965171D01*
X47770715Y-83965171D01*
X48413572Y-83822314D02*
X48485000Y-83893743D01*
X48413572Y-83965171D01*
X48342143Y-83893743D01*
X48413572Y-83822314D01*
X48413572Y-83965171D01*
X49413572Y-82465171D02*
X49556429Y-82465171D01*
X49699286Y-82536600D01*
X49770715Y-82608029D01*
X49842144Y-82750886D01*
X49913572Y-83036600D01*
X49913572Y-83393743D01*
X49842144Y-83679457D01*
X49770715Y-83822314D01*
X49699286Y-83893743D01*
X49556429Y-83965171D01*
X49413572Y-83965171D01*
X49270715Y-83893743D01*
X49199286Y-83822314D01*
X49127858Y-83679457D01*
X49056429Y-83393743D01*
X49056429Y-83036600D01*
X49127858Y-82750886D01*
X49199286Y-82608029D01*
X49270715Y-82536600D01*
X49413572Y-82465171D01*
X50556429Y-83822314D02*
X50627857Y-83893743D01*
X50556429Y-83965171D01*
X50485000Y-83893743D01*
X50556429Y-83822314D01*
X50556429Y-83965171D01*
X51127858Y-82465171D02*
X52056429Y-82465171D01*
X51556429Y-83036600D01*
X51770715Y-83036600D01*
X51913572Y-83108029D01*
X51985001Y-83179457D01*
X52056429Y-83322314D01*
X52056429Y-83679457D01*
X51985001Y-83822314D01*
X51913572Y-83893743D01*
X51770715Y-83965171D01*
X51342143Y-83965171D01*
X51199286Y-83893743D01*
X51127858Y-83822314D01*
X51740714Y-11061000D02*
X51597857Y-10989571D01*
X51383571Y-10989571D01*
X51169286Y-11061000D01*
X51026428Y-11203857D01*
X50955000Y-11346714D01*
X50883571Y-11632429D01*
X50883571Y-11846714D01*
X50955000Y-12132429D01*
X51026428Y-12275286D01*
X51169286Y-12418143D01*
X51383571Y-12489571D01*
X51526428Y-12489571D01*
X51740714Y-12418143D01*
X51812143Y-12346714D01*
X51812143Y-11846714D01*
X51526428Y-11846714D01*
X52455000Y-11489571D02*
X52455000Y-12489571D01*
X52455000Y-11632429D02*
X52526428Y-11561000D01*
X52669286Y-11489571D01*
X52883571Y-11489571D01*
X53026428Y-11561000D01*
X53097857Y-11703857D01*
X53097857Y-12489571D01*
X54455000Y-12489571D02*
X54455000Y-10989571D01*
X54455000Y-12418143D02*
X54312143Y-12489571D01*
X54026429Y-12489571D01*
X53883571Y-12418143D01*
X53812143Y-12346714D01*
X53740714Y-12203857D01*
X53740714Y-11775286D01*
X53812143Y-11632429D01*
X53883571Y-11561000D01*
X54026429Y-11489571D01*
X54312143Y-11489571D01*
X54455000Y-11561000D01*
D15*
X16002000Y-60960000D03*
D16*
X16002000Y-58460000D03*
X24892000Y-72898000D03*
X22392000Y-72898000D03*
X28448000Y-47498000D03*
X25948000Y-47498000D03*
X38608000Y-58674000D03*
X38608000Y-61174000D03*
X55372000Y-54610000D03*
X52872000Y-54610000D03*
X55372000Y-59690000D03*
X52872000Y-59690000D03*
D17*
X8128000Y-60706000D03*
D18*
X8128000Y-58166000D03*
D17*
X9398000Y-74930000D03*
D18*
X11938000Y-74930000D03*
D17*
X8382000Y-68834000D03*
D18*
X8382000Y-66294000D03*
D17*
X53276000Y-74422000D03*
D18*
X50736000Y-74422000D03*
X48196000Y-74422000D03*
X45656000Y-74422000D03*
X43116000Y-74422000D03*
X40576000Y-74422000D03*
D19*
X52832000Y-17272000D03*
D20*
X52832000Y-22352000D03*
D17*
X19177000Y-42164000D03*
D18*
X21717000Y-42164000D03*
X24257000Y-42164000D03*
X26797000Y-42164000D03*
X29337000Y-42164000D03*
X31877000Y-42164000D03*
X34417000Y-42164000D03*
D16*
X28702000Y-74676000D03*
X28702000Y-69596000D03*
X48768000Y-54610000D03*
X48768000Y-59690000D03*
X4572000Y-43942000D03*
X9652000Y-43942000D03*
X4572000Y-40132000D03*
X9652000Y-40132000D03*
D21*
X21732000Y-54928000D03*
X21732000Y-55728000D03*
X21732000Y-56528000D03*
X21732000Y-57328000D03*
X21732000Y-58128000D03*
X21732000Y-58928000D03*
X21732000Y-59728000D03*
X21732000Y-60528000D03*
X21732000Y-61328000D03*
X21732000Y-62128000D03*
X21732000Y-62928000D03*
D22*
X23432000Y-64628000D03*
X24232000Y-64628000D03*
X25032000Y-64628000D03*
X25832000Y-64628000D03*
X26632000Y-64628000D03*
X27432000Y-64628000D03*
X28232000Y-64628000D03*
X29032000Y-64628000D03*
X29832000Y-64628000D03*
X30632000Y-64628000D03*
X31432000Y-64628000D03*
D21*
X33132000Y-62928000D03*
X33132000Y-62128000D03*
X33132000Y-61328000D03*
X33132000Y-60528000D03*
X33132000Y-59728000D03*
X33132000Y-58928000D03*
X33132000Y-58128000D03*
X33132000Y-57328000D03*
X33132000Y-56528000D03*
X33132000Y-55728000D03*
X33132000Y-54928000D03*
D22*
X31432000Y-53228000D03*
X30632000Y-53228000D03*
X29832000Y-53228000D03*
X29032000Y-53228000D03*
X28232000Y-53228000D03*
X27432000Y-53228000D03*
X26632000Y-53228000D03*
X25832000Y-53228000D03*
X25032000Y-53228000D03*
X24232000Y-53228000D03*
X23432000Y-53228000D03*
D23*
X60554000Y-36195000D03*
D24*
X54254000Y-36195000D03*
X54254000Y-38495000D03*
X54254000Y-33895000D03*
D25*
X14224000Y-20828000D03*
X14224000Y-23368000D03*
X14224000Y-25908000D03*
X14224000Y-28448000D03*
X14224000Y-30988000D03*
X14224000Y-33528000D03*
X37084000Y-33528000D03*
X37084000Y-30988000D03*
X37084000Y-28448000D03*
X37084000Y-25908000D03*
X37084000Y-23368000D03*
X37084000Y-20828000D03*
D26*
X43688000Y-54610000D03*
X43688000Y-59510000D03*
D16*
X57912000Y-42926000D03*
X55412000Y-42926000D03*
X49530000Y-42926000D03*
X52030000Y-42926000D03*
D27*
X0Y0D03*
X58420000Y-72834500D03*
X16748800Y-37490700D03*
X29768800Y-37211000D03*
X21640800Y-38557200D03*
X38437100Y-17776400D03*
X12166900Y-17121100D03*
X52422500Y-33467500D03*
X38080800Y-54628100D03*
X37829400Y-56569600D03*
X18451300Y-65025400D03*
X11687500Y-60689100D03*
X15408300Y-67346900D03*
X14001200Y-65661200D03*
X39662700Y-67548500D03*
X38088200Y-69722900D03*
X31193100Y-46444200D03*
X33226600Y-45385400D03*
X19364300Y-57905700D03*
X19846200Y-56583400D03*
X13604100Y-46426100D03*
X35205900Y-47133900D03*
X32903800Y-48407100D03*
X14182600Y-40416800D03*
X22373200Y-48348600D03*
X14682700Y-48488500D03*
D28*
X18534300Y-59728000D02*
X17302300Y-60960000D01*
X21732000Y-59728000D02*
X18534300Y-59728000D01*
X16002000Y-60960000D02*
X17302300Y-60960000D01*
D29*
X4572000Y-43942000D02*
X4572000Y-70548500D01*
X58420000Y-74231500D02*
X58420000Y-72834500D01*
X54292500Y-78359000D02*
X58420000Y-74231500D01*
X21717000Y-78359000D02*
X54292500Y-78359000D01*
X20002500Y-76644500D02*
X21717000Y-78359000D01*
X20002500Y-73342500D02*
X20002500Y-76644500D01*
X18542000Y-71882000D02*
X20002500Y-73342500D01*
X5905500Y-71882000D02*
X18542000Y-71882000D01*
X4572000Y-70548500D02*
X5905500Y-71882000D01*
X49530000Y-39497000D02*
X46101000Y-36068000D01*
X40195500Y-25971500D02*
X37147500Y-25971500D01*
X41402000Y-27178000D02*
X40195500Y-25971500D01*
X41402000Y-31369000D02*
X41402000Y-27178000D01*
X43497500Y-33464500D02*
X41402000Y-31369000D01*
X46101000Y-36068000D02*
X43497500Y-33464500D01*
X37147500Y-25971500D02*
X37084000Y-25908000D01*
D13*
X20675600Y-45812500D02*
X24262500Y-45812500D01*
X24262500Y-45812500D02*
X25948000Y-47498000D01*
X16748800Y-37490700D02*
X16748900Y-37490700D01*
X16748900Y-37490700D02*
X16748900Y-43696700D01*
X16748900Y-43696700D02*
X18864700Y-45812500D01*
X18864700Y-45812500D02*
X20675600Y-45812500D01*
X20675600Y-45812500D02*
X20678600Y-45812500D01*
D29*
X24892000Y-25908000D02*
X37084000Y-25908000D01*
X13766800Y-14782800D02*
X24892000Y-25908000D01*
X6375400Y-14782800D02*
X13766800Y-14782800D01*
X4572000Y-16586200D02*
X6375400Y-14782800D01*
X4572000Y-40132000D02*
X4572000Y-16586200D01*
D28*
X26416000Y-72898000D02*
X24892000Y-72898000D01*
X26860000Y-72454000D02*
X26416000Y-72898000D01*
X26860000Y-68580000D02*
X26860000Y-72454000D01*
X27432000Y-68008000D02*
X26860000Y-68580000D01*
X27432000Y-64628000D02*
X27432000Y-68008000D01*
X37742000Y-61174000D02*
X38608000Y-61174000D01*
X37211000Y-60642000D02*
X37742000Y-61174000D01*
X37211000Y-59246000D02*
X37211000Y-60642000D01*
X36894000Y-58928000D02*
X37211000Y-59246000D01*
X33132000Y-58928000D02*
X36894000Y-58928000D01*
X26632000Y-48182000D02*
X25948000Y-47498000D01*
X26632000Y-53228000D02*
X26632000Y-48182000D01*
D29*
X54254000Y-36195000D02*
X52703700Y-36195000D01*
X4572000Y-43942000D02*
X4572000Y-40132000D01*
X49530000Y-39368700D02*
X49530000Y-39497000D01*
X49530000Y-39497000D02*
X49530000Y-42926000D01*
X52703700Y-36195000D02*
X49530000Y-39368700D01*
X29768800Y-37211000D02*
X26263600Y-37211000D01*
X26263600Y-37211000D02*
X23063200Y-37211000D01*
X23063200Y-37211000D02*
X21717000Y-38557200D01*
X21717000Y-38557200D02*
X21640800Y-38557200D01*
X37084000Y-20828000D02*
X37084000Y-19129500D01*
X37084000Y-19129500D02*
X38437100Y-17776400D01*
X14224000Y-20828000D02*
X14224000Y-19178200D01*
X14224000Y-19178200D02*
X12166900Y-17121100D01*
X54254000Y-33895000D02*
X52703700Y-33895000D01*
X52422500Y-33613800D02*
X52422500Y-33467500D01*
X52703700Y-33895000D02*
X52422500Y-33613800D01*
D28*
X30506000Y-58128000D02*
X33132000Y-58128000D01*
X27432000Y-55054500D02*
X30506000Y-58128000D01*
X27432000Y-53228000D02*
X27432000Y-55054500D01*
X16470000Y-58928000D02*
X16002000Y-58460000D01*
X21732000Y-58928000D02*
X16470000Y-58928000D01*
X22392000Y-71715000D02*
X22392000Y-72898000D01*
X22796000Y-71310000D02*
X22392000Y-71715000D01*
X25210000Y-71310000D02*
X22796000Y-71310000D01*
X26035000Y-70485000D02*
X25210000Y-71310000D01*
X26035000Y-67945000D02*
X26035000Y-70485000D01*
X26632000Y-67348000D02*
X26035000Y-67945000D01*
X26632000Y-64628000D02*
X26632000Y-67348000D01*
X38062000Y-58128000D02*
X38608000Y-58674000D01*
X33132000Y-58128000D02*
X38062000Y-58128000D01*
X27432000Y-48514000D02*
X28448000Y-47498000D01*
X27432000Y-53228000D02*
X27432000Y-48514000D01*
D29*
X37084000Y-23368000D02*
X37084000Y-20828000D01*
D28*
X36180900Y-56528000D02*
X33132000Y-56528000D01*
X38080800Y-54628100D02*
X36180900Y-56528000D01*
X37071000Y-57328000D02*
X37829400Y-56569600D01*
X33132000Y-57328000D02*
X37071000Y-57328000D01*
D29*
X54781300Y-39795300D02*
X57912000Y-42926000D01*
X54254000Y-38495000D02*
X54254000Y-39795300D01*
X54254000Y-39795300D02*
X54781300Y-39795300D01*
D28*
X20481700Y-62995000D02*
X18451300Y-65025400D01*
X20481700Y-62928000D02*
X20481700Y-62995000D01*
X21732000Y-62928000D02*
X20481700Y-62928000D01*
X13262700Y-62264300D02*
X11687500Y-60689100D01*
X17026800Y-62264300D02*
X13262700Y-62264300D01*
X18763100Y-60528000D02*
X17026800Y-62264300D01*
X21732000Y-60528000D02*
X18763100Y-60528000D01*
X15408300Y-66627200D02*
X15408300Y-67346900D01*
X19907500Y-62128000D02*
X15408300Y-66627200D01*
X21732000Y-62128000D02*
X19907500Y-62128000D01*
X18962200Y-61328000D02*
X21732000Y-61328000D01*
X14629000Y-65661200D02*
X18962200Y-61328000D01*
X14001200Y-65661200D02*
X14629000Y-65661200D01*
X28232000Y-69126000D02*
X28702000Y-69596000D01*
X28232000Y-64628000D02*
X28232000Y-69126000D01*
X33132000Y-62128000D02*
X34382300Y-62128000D01*
X34382300Y-62268100D02*
X39662700Y-67548500D01*
X34382300Y-62128000D02*
X34382300Y-62268100D01*
X33132000Y-64766700D02*
X38088200Y-69722900D01*
X33132000Y-62928000D02*
X33132000Y-64766700D01*
X31193100Y-46704100D02*
X31193100Y-46444200D01*
X28232000Y-49665200D02*
X31193100Y-46704100D01*
X28232000Y-53228000D02*
X28232000Y-49665200D01*
X29032000Y-50032300D02*
X29032000Y-53228000D01*
X29032000Y-50032300D02*
X33226600Y-45837700D01*
X33226600Y-45837700D02*
X33226600Y-45385400D01*
X21732000Y-55728000D02*
X20481600Y-55728000D01*
X20481600Y-55728000D02*
X20332300Y-55578700D01*
X20332300Y-55578700D02*
X19347300Y-55578700D01*
X19347300Y-55578700D02*
X18833900Y-56092100D01*
X18833900Y-56092100D02*
X18833900Y-57375300D01*
X18833900Y-57375300D02*
X19364300Y-57905700D01*
X19901600Y-56528000D02*
X19846200Y-56583400D01*
X21732000Y-56528000D02*
X19901600Y-56528000D01*
X35476900Y-70723200D02*
X35476900Y-70732100D01*
X30632000Y-65878300D02*
X35476900Y-70723200D01*
X40684400Y-33072100D02*
X38600300Y-30988000D01*
X30632000Y-64628000D02*
X30632000Y-65878300D01*
X38600300Y-30988000D02*
X37084000Y-30988000D01*
X40684400Y-37115800D02*
X40684400Y-33072100D01*
X40309800Y-37490400D02*
X40684400Y-37115800D01*
X40309800Y-64185800D02*
X40309800Y-37490400D01*
X41706800Y-65582800D02*
X40309800Y-64185800D01*
X41706800Y-69189600D02*
X41706800Y-65582800D01*
X38912800Y-71983600D02*
X41706800Y-69189600D01*
X36728400Y-71983600D02*
X38912800Y-71983600D01*
X35476900Y-70732100D02*
X36728400Y-71983600D01*
X12707700Y-45529700D02*
X13604100Y-46426100D01*
X12707700Y-45529700D02*
X12707700Y-45524500D01*
X12707700Y-45524500D02*
X11557000Y-44373800D01*
X11557000Y-44373800D02*
X11557000Y-31419800D01*
X11557000Y-31419800D02*
X11988800Y-30988000D01*
X11988800Y-30988000D02*
X12707700Y-30988000D01*
X14224000Y-30988000D02*
X12707700Y-30988000D01*
X31432000Y-51977700D02*
X31738200Y-51977700D01*
X31738200Y-51977700D02*
X35205900Y-48510000D01*
X35205900Y-48510000D02*
X35205900Y-47133900D01*
X31432000Y-53228000D02*
X31432000Y-51977700D01*
X37084000Y-33528000D02*
X37084000Y-35044300D01*
X30632000Y-53228000D02*
X30632000Y-51977700D01*
X37084000Y-43841000D02*
X37084000Y-35044300D01*
X33904100Y-47020900D02*
X37084000Y-43841000D01*
X33904100Y-48821500D02*
X33904100Y-47020900D01*
X33318200Y-49407400D02*
X33904100Y-48821500D01*
X33004200Y-49407400D02*
X33318200Y-49407400D01*
X30632000Y-51779600D02*
X33004200Y-49407400D01*
X30632000Y-51977700D02*
X30632000Y-51779600D01*
X29832000Y-53228000D02*
X29832000Y-51478900D01*
X29832000Y-51478900D02*
X32903800Y-48407100D01*
X14224000Y-40375400D02*
X14224000Y-33528000D01*
X14224000Y-40375400D02*
X14182600Y-40416800D01*
X14682700Y-48488500D02*
X7569100Y-48488500D01*
X25832000Y-53228000D02*
X25832000Y-51529400D01*
X25832000Y-51529400D02*
X22651200Y-48348600D01*
X22651200Y-48348600D02*
X22373200Y-48348600D01*
X12707700Y-23368000D02*
X14224000Y-23368000D01*
X7518400Y-23368000D02*
X12707700Y-23368000D01*
X6248400Y-24638000D02*
X7518400Y-23368000D01*
X6248400Y-47167800D02*
X6248400Y-24638000D01*
X7569100Y-48488500D02*
X6248400Y-47167800D01*
X25032000Y-51734100D02*
X25032000Y-51719352D01*
X15483300Y-42824400D02*
X15483300Y-44490100D01*
X25032000Y-51734100D02*
X25032000Y-53228000D01*
X16484600Y-45491400D02*
X15483300Y-44490100D01*
X16941800Y-45491400D02*
X16484600Y-45491400D01*
X18313400Y-46863000D02*
X16941800Y-45491400D01*
X19304000Y-46863000D02*
X18313400Y-46863000D01*
X23164800Y-50723800D02*
X19304000Y-46863000D01*
X24036448Y-50723800D02*
X23164800Y-50723800D01*
X25032000Y-51719352D02*
X24036448Y-50723800D01*
X15483300Y-42824400D02*
X15483300Y-36307300D01*
X15740300Y-25908000D02*
X14224000Y-25908000D01*
X16433800Y-25908000D02*
X15740300Y-25908000D01*
X16814800Y-26289000D02*
X16433800Y-25908000D01*
X16814800Y-34975800D02*
X16814800Y-26289000D01*
X15483300Y-36307300D02*
X16814800Y-34975800D01*
X15483300Y-42824400D02*
X15483300Y-42804800D01*
X17364000Y-47426400D02*
X17378200Y-47426400D01*
X13208000Y-47426400D02*
X17364000Y-47426400D01*
X24266198Y-51943502D02*
X24232000Y-51943502D01*
X23757696Y-51435000D02*
X24266198Y-51943502D01*
X21386800Y-51435000D02*
X23757696Y-51435000D01*
X17378200Y-47426400D02*
X21386800Y-51435000D01*
X13208000Y-47426400D02*
X9174000Y-47426400D01*
X12707700Y-28448000D02*
X14224000Y-28448000D01*
X9372600Y-28448000D02*
X12707700Y-28448000D01*
X7823200Y-29997400D02*
X9372600Y-28448000D01*
X7823200Y-46075600D02*
X7823200Y-29997400D01*
X9174000Y-47426400D02*
X7823200Y-46075600D01*
X24232000Y-53228000D02*
X24232000Y-51943502D01*
X24232000Y-51943502D02*
X24232000Y-51977700D01*
X13189800Y-47426400D02*
X13208000Y-47426400D01*
D30*
G36*
X47625000Y-26162000D02*
X47635006Y-26211410D01*
X47663447Y-26253035D01*
X47705841Y-26280315D01*
X47752000Y-26289000D01*
X57912000Y-26289000D01*
X57961410Y-26278994D01*
X58003035Y-26250553D01*
X58030315Y-26208159D01*
X58039000Y-26162000D01*
X58039000Y-11049000D01*
X64389000Y-11049000D01*
X64389000Y-69342000D01*
X58293000Y-69342000D01*
X58293000Y-46101000D01*
X59817000Y-46101000D01*
X59866410Y-46090994D01*
X59908035Y-46062553D01*
X59935315Y-46020159D01*
X59944000Y-45974000D01*
X59944000Y-32004000D01*
X59933994Y-31954590D01*
X59905553Y-31912965D01*
X59863159Y-31885685D01*
X59817000Y-31877000D01*
X47169606Y-31877000D01*
X43815000Y-28522394D01*
X43815000Y-24384000D01*
X43804994Y-24334590D01*
X43777803Y-24294197D01*
X40259000Y-20775394D01*
X40259000Y-11049000D01*
X47625000Y-11049000D01*
X47625000Y-26162000D01*
X47625000Y-26162000D01*
G37*
X47625000Y-26162000D02*
X47635006Y-26211410D01*
X47663447Y-26253035D01*
X47705841Y-26280315D01*
X47752000Y-26289000D01*
X57912000Y-26289000D01*
X57961410Y-26278994D01*
X58003035Y-26250553D01*
X58030315Y-26208159D01*
X58039000Y-26162000D01*
X58039000Y-11049000D01*
X64389000Y-11049000D01*
X64389000Y-69342000D01*
X58293000Y-69342000D01*
X58293000Y-46101000D01*
X59817000Y-46101000D01*
X59866410Y-46090994D01*
X59908035Y-46062553D01*
X59935315Y-46020159D01*
X59944000Y-45974000D01*
X59944000Y-32004000D01*
X59933994Y-31954590D01*
X59905553Y-31912965D01*
X59863159Y-31885685D01*
X59817000Y-31877000D01*
X47169606Y-31877000D01*
X43815000Y-28522394D01*
X43815000Y-24384000D01*
X43804994Y-24334590D01*
X43777803Y-24294197D01*
X40259000Y-20775394D01*
X40259000Y-11049000D01*
X47625000Y-11049000D01*
X47625000Y-26162000D01*
M02*
