%TF.GenerationSoftware,KiCad,Pcbnew,5.99.0+really5.1.10+dfsg1-1*%
%TF.CreationDate,2021-12-16T19:10:07+01:00*%
%TF.ProjectId,tfg,7466672e-6b69-4636-9164-5f7063625858,rev?*%
%TF.SameCoordinates,Original*%
%TF.FileFunction,Copper,L1,Top*%
%TF.FilePolarity,Positive*%
%FSLAX46Y46*%
G04 Gerber Fmt 4.6, Leading zero omitted, Abs format (unit mm)*
G04 Created by KiCad (PCBNEW 5.99.0+really5.1.10+dfsg1-1) date 2021-12-16 19:10:07*
%MOMM*%
%LPD*%
G01*
G04 APERTURE LIST*
%TA.AperFunction,NonConductor*%
%ADD10C,0.375000*%
%TD*%
%TA.AperFunction,SMDPad,CuDef*%
%ADD11R,1.500000X0.550000*%
%TD*%
%TA.AperFunction,SMDPad,CuDef*%
%ADD12R,0.550000X1.500000*%
%TD*%
%TA.AperFunction,ComponentPad*%
%ADD13C,1.600000*%
%TD*%
%TA.AperFunction,ComponentPad*%
%ADD14R,1.600000X1.600000*%
%TD*%
%TA.AperFunction,ComponentPad*%
%ADD15R,1.700000X1.700000*%
%TD*%
%TA.AperFunction,ComponentPad*%
%ADD16O,1.700000X1.700000*%
%TD*%
%TA.AperFunction,ComponentPad*%
%ADD17R,3.000000X3.000000*%
%TD*%
%TA.AperFunction,ComponentPad*%
%ADD18C,3.000000*%
%TD*%
%TA.AperFunction,SMDPad,CuDef*%
%ADD19R,2.032000X2.032000*%
%TD*%
%TA.AperFunction,ComponentPad*%
%ADD20C,1.500000*%
%TD*%
%TA.AperFunction,ComponentPad*%
%ADD21O,1.400000X1.400000*%
%TD*%
%TA.AperFunction,ComponentPad*%
%ADD22C,1.400000*%
%TD*%
%TA.AperFunction,SMDPad,CuDef*%
%ADD23R,2.500000X1.000000*%
%TD*%
%TA.AperFunction,SMDPad,CuDef*%
%ADD24R,4.000000X2.000000*%
%TD*%
%TA.AperFunction,SMDPad,CuDef*%
%ADD25C,0.100000*%
%TD*%
%TA.AperFunction,ViaPad*%
%ADD26C,1.000000*%
%TD*%
%TA.AperFunction,Conductor*%
%ADD27C,0.700000*%
%TD*%
%TA.AperFunction,Conductor*%
%ADD28C,0.400000*%
%TD*%
%TA.AperFunction,Conductor*%
%ADD29C,0.254000*%
%TD*%
%TA.AperFunction,Conductor*%
%ADD30C,0.100000*%
%TD*%
G04 APERTURE END LIST*
D10*
X177086402Y-64296860D02*
X176943545Y-64225431D01*
X176729260Y-64225431D01*
X176514974Y-64296860D01*
X176372117Y-64439717D01*
X176300688Y-64582574D01*
X176229260Y-64868288D01*
X176229260Y-65082574D01*
X176300688Y-65368288D01*
X176372117Y-65511145D01*
X176514974Y-65654002D01*
X176729260Y-65725431D01*
X176872117Y-65725431D01*
X177086402Y-65654002D01*
X177157831Y-65582574D01*
X177157831Y-65082574D01*
X176872117Y-65082574D01*
X177800688Y-65725431D02*
X177800688Y-64225431D01*
X178657831Y-65725431D01*
X178657831Y-64225431D01*
X179372117Y-65725431D02*
X179372117Y-64225431D01*
X179729260Y-64225431D01*
X179943545Y-64296860D01*
X180086402Y-64439717D01*
X180157831Y-64582574D01*
X180229260Y-64868288D01*
X180229260Y-65082574D01*
X180157831Y-65368288D01*
X180086402Y-65511145D01*
X179943545Y-65654002D01*
X179729260Y-65725431D01*
X179372117Y-65725431D01*
X136900528Y-91804848D02*
X136900528Y-90947705D01*
X136900528Y-91376277D02*
X138400528Y-91376277D01*
X138186242Y-91233420D01*
X138043385Y-91090562D01*
X137971957Y-90947705D01*
X137686242Y-92947705D02*
X137686242Y-92447705D01*
X136900528Y-92447705D02*
X138400528Y-92447705D01*
X138400528Y-93161991D01*
X138400528Y-94447705D02*
X138400528Y-93733420D01*
X137686242Y-93661991D01*
X137757671Y-93733420D01*
X137829100Y-93876277D01*
X137829100Y-94233420D01*
X137757671Y-94376277D01*
X137686242Y-94447705D01*
X137543385Y-94519134D01*
X137186242Y-94519134D01*
X137043385Y-94447705D01*
X136971957Y-94376277D01*
X136900528Y-94233420D01*
X136900528Y-93876277D01*
X136971957Y-93733420D01*
X137043385Y-93661991D01*
X136757671Y-94804848D02*
X136757671Y-95947705D01*
X138400528Y-96947705D02*
X138400528Y-96661991D01*
X138329100Y-96519134D01*
X138257671Y-96447705D01*
X138043385Y-96304848D01*
X137757671Y-96233420D01*
X137186242Y-96233420D01*
X137043385Y-96304848D01*
X136971957Y-96376277D01*
X136900528Y-96519134D01*
X136900528Y-96804848D01*
X136971957Y-96947705D01*
X137043385Y-97019134D01*
X137186242Y-97090562D01*
X137543385Y-97090562D01*
X137686242Y-97019134D01*
X137757671Y-96947705D01*
X137829100Y-96804848D01*
X137829100Y-96519134D01*
X137757671Y-96376277D01*
X137686242Y-96304848D01*
X137543385Y-96233420D01*
X136900528Y-97733420D02*
X138400528Y-97733420D01*
X137329100Y-98233420D01*
X138400528Y-98733420D01*
X136900528Y-98733420D01*
X136900528Y-100304848D02*
X137614814Y-99804848D01*
X136900528Y-99447705D02*
X138400528Y-99447705D01*
X138400528Y-100019134D01*
X138329100Y-100161991D01*
X138257671Y-100233420D01*
X138114814Y-100304848D01*
X137900528Y-100304848D01*
X137757671Y-100233420D01*
X137686242Y-100161991D01*
X137614814Y-100019134D01*
X137614814Y-99447705D01*
X138400528Y-103019134D02*
X136900528Y-103519134D01*
X138400528Y-104019134D01*
X137043385Y-104519134D02*
X136971957Y-104590562D01*
X136900528Y-104519134D01*
X136971957Y-104447705D01*
X137043385Y-104519134D01*
X136900528Y-104519134D01*
X136900528Y-106019134D02*
X136900528Y-105161991D01*
X136900528Y-105590562D02*
X138400528Y-105590562D01*
X138186242Y-105447705D01*
X138043385Y-105304848D01*
X137971957Y-105161991D01*
D11*
%TO.P,U2,1*%
%TO.N,Net-(U2-Pad1)*%
X153050000Y-101664000D03*
%TO.P,U2,2*%
%TO.N,Net-(U2-Pad2)*%
X153050000Y-102464000D03*
%TO.P,U2,3*%
%TO.N,Net-(U2-Pad3)*%
X153050000Y-103264000D03*
%TO.P,U2,4*%
%TO.N,Net-(U2-Pad4)*%
X153050000Y-104064000D03*
%TO.P,U2,5*%
%TO.N,Net-(U2-Pad5)*%
X153050000Y-104864000D03*
%TO.P,U2,6*%
%TO.N,GND-micro*%
X153050000Y-105664000D03*
%TO.P,U2,7*%
%TO.N,Net-(C5-Pad1)*%
X153050000Y-106464000D03*
%TO.P,U2,8*%
%TO.N,Net-(J1-Pad2)*%
X153050000Y-107264000D03*
%TO.P,U2,9*%
%TO.N,Net-(J2-Pad2)*%
X153050000Y-108064000D03*
%TO.P,U2,10*%
%TO.N,Net-(J2-Pad1)*%
X153050000Y-108864000D03*
%TO.P,U2,11*%
%TO.N,Net-(J1-Pad1)*%
X153050000Y-109664000D03*
D12*
%TO.P,U2,12*%
%TO.N,Net-(U2-Pad12)*%
X154750000Y-111364000D03*
%TO.P,U2,13*%
%TO.N,Net-(U2-Pad13)*%
X155550000Y-111364000D03*
%TO.P,U2,14*%
%TO.N,Net-(U2-Pad14)*%
X156350000Y-111364000D03*
%TO.P,U2,15*%
%TO.N,Net-(U2-Pad15)*%
X157150000Y-111364000D03*
%TO.P,U2,16*%
%TO.N,GND-micro*%
X157950000Y-111364000D03*
%TO.P,U2,17*%
%TO.N,V3.3-micro*%
X158750000Y-111364000D03*
%TO.P,U2,18*%
%TO.N,Net-(J3-Pad1)*%
X159550000Y-111364000D03*
%TO.P,U2,19*%
%TO.N,Net-(U2-Pad19)*%
X160350000Y-111364000D03*
%TO.P,U2,20*%
%TO.N,Net-(U2-Pad20)*%
X161150000Y-111364000D03*
%TO.P,U2,21*%
%TO.N,Net-(U1-Pad8)*%
X161950000Y-111364000D03*
%TO.P,U2,22*%
%TO.N,Net-(U2-Pad22)*%
X162750000Y-111364000D03*
D11*
%TO.P,U2,23*%
%TO.N,Net-(J3-Pad5)*%
X164450000Y-109664000D03*
%TO.P,U2,24*%
%TO.N,Net-(J3-Pad4)*%
X164450000Y-108864000D03*
%TO.P,U2,25*%
%TO.N,Net-(U2-Pad25)*%
X164450000Y-108064000D03*
%TO.P,U2,26*%
%TO.N,Net-(U2-Pad26)*%
X164450000Y-107264000D03*
%TO.P,U2,27*%
%TO.N,Net-(U2-Pad27)*%
X164450000Y-106464000D03*
%TO.P,U2,28*%
%TO.N,V3.3-micro*%
X164450000Y-105664000D03*
%TO.P,U2,29*%
%TO.N,GND-micro*%
X164450000Y-104864000D03*
%TO.P,U2,30*%
%TO.N,Net-(C2-Pad2)*%
X164450000Y-104064000D03*
%TO.P,U2,31*%
%TO.N,Net-(C1-Pad1)*%
X164450000Y-103264000D03*
%TO.P,U2,32*%
%TO.N,Net-(U2-Pad32)*%
X164450000Y-102464000D03*
%TO.P,U2,33*%
%TO.N,Net-(U2-Pad33)*%
X164450000Y-101664000D03*
D12*
%TO.P,U2,34*%
%TO.N,Net-(U1-Pad5)*%
X162750000Y-99964000D03*
%TO.P,U2,35*%
%TO.N,Net-(U1-Pad7)*%
X161950000Y-99964000D03*
%TO.P,U2,36*%
%TO.N,Net-(U1-Pad6)*%
X161150000Y-99964000D03*
%TO.P,U2,37*%
%TO.N,Net-(U2-Pad37)*%
X160350000Y-99964000D03*
%TO.P,U2,38*%
%TO.N,Net-(U2-Pad38)*%
X159550000Y-99964000D03*
%TO.P,U2,39*%
%TO.N,GND-micro*%
X158750000Y-99964000D03*
%TO.P,U2,40*%
%TO.N,V3.3-micro*%
X157950000Y-99964000D03*
%TO.P,U2,41*%
%TO.N,Net-(U1-Pad2)*%
X157150000Y-99964000D03*
%TO.P,U2,42*%
%TO.N,Net-(U1-Pad3)*%
X156350000Y-99964000D03*
%TO.P,U2,43*%
%TO.N,Net-(U1-Pad4)*%
X155550000Y-99964000D03*
%TO.P,U2,44*%
%TO.N,Net-(U2-Pad44)*%
X154750000Y-99964000D03*
%TD*%
D13*
%TO.P,C1,2*%
%TO.N,GND*%
X174864000Y-97536000D03*
%TO.P,C1,1*%
%TO.N,Net-(C1-Pad1)*%
X172364000Y-97536000D03*
%TD*%
%TO.P,C2,1*%
%TO.N,GND*%
X175057000Y-113690000D03*
%TO.P,C2,2*%
%TO.N,Net-(C2-Pad2)*%
X172557000Y-113690000D03*
%TD*%
%TO.P,C3,1*%
%TO.N,V3.3-micro*%
X155600000Y-116002000D03*
%TO.P,C3,2*%
%TO.N,GND-micro*%
X153100000Y-116002000D03*
%TD*%
%TO.P,C4,2*%
%TO.N,V3.3-micro*%
X157840000Y-95412600D03*
%TO.P,C4,1*%
%TO.N,GND-micro*%
X160340000Y-95412600D03*
%TD*%
D14*
%TO.P,C5,1*%
%TO.N,Net-(C5-Pad1)*%
X148844000Y-105156000D03*
D13*
%TO.P,C5,2*%
%TO.N,GND-micro*%
X148844000Y-102656000D03*
%TD*%
%TO.P,C6,2*%
%TO.N,GND*%
X170878000Y-80782100D03*
%TO.P,C6,1*%
%TO.N,+3V3*%
X173378000Y-80782100D03*
%TD*%
%TO.P,C8,1*%
%TO.N,GND-micro*%
X167640000Y-107696000D03*
%TO.P,C8,2*%
%TO.N,V3.3-micro*%
X167640000Y-110196000D03*
%TD*%
D15*
%TO.P,J3,1*%
%TO.N,Net-(J3-Pad1)*%
X185562000Y-118148000D03*
D16*
%TO.P,J3,2*%
%TO.N,+3V3*%
X188102000Y-118148000D03*
%TO.P,J3,3*%
%TO.N,GND*%
X190642000Y-118148000D03*
%TO.P,J3,4*%
%TO.N,Net-(J3-Pad4)*%
X193182000Y-118148000D03*
%TO.P,J3,5*%
%TO.N,Net-(J3-Pad5)*%
X195722000Y-118148000D03*
%TO.P,J3,6*%
%TO.N,Net-(J3-Pad6)*%
X198262000Y-118148000D03*
%TD*%
D17*
%TO.P,J4,1*%
%TO.N,GND*%
X172443000Y-67541100D03*
D18*
%TO.P,J4,2*%
%TO.N,Net-(C7-Pad1)*%
X167363000Y-67541100D03*
%TD*%
D13*
%TO.P,R1,1*%
%TO.N,Net-(C1-Pad1)*%
X177597000Y-102972000D03*
%TO.P,R1,2*%
%TO.N,Net-(C2-Pad2)*%
X177597000Y-108052000D03*
%TD*%
%TO.P,R2,2*%
%TO.N,V3.3-micro*%
X164541000Y-116027000D03*
%TO.P,R2,1*%
%TO.N,Net-(J3-Pad1)*%
X159461000Y-116027000D03*
%TD*%
D19*
%TO.P,U1,1*%
%TO.N,GND*%
X144488000Y-77320100D03*
%TO.P,U1,2*%
%TO.N,Net-(U1-Pad2)*%
X144488000Y-79860100D03*
%TO.P,U1,3*%
%TO.N,Net-(U1-Pad3)*%
X144488000Y-82400100D03*
%TO.P,U1,4*%
%TO.N,Net-(U1-Pad4)*%
X144488000Y-84940100D03*
%TO.P,U1,5*%
%TO.N,Net-(U1-Pad5)*%
X144488000Y-87480100D03*
%TO.P,U1,6*%
%TO.N,Net-(U1-Pad6)*%
X144488000Y-90020100D03*
%TO.P,U1,7*%
%TO.N,Net-(U1-Pad7)*%
X162268000Y-90020100D03*
%TO.P,U1,8*%
%TO.N,Net-(U1-Pad8)*%
X162268000Y-87480100D03*
%TO.P,U1,9*%
%TO.N,Net-(U1-Pad9)*%
X162268000Y-84940100D03*
%TO.P,U1,10*%
%TO.N,+3V3*%
X162268000Y-82400100D03*
%TO.P,U1,11*%
%TO.N,GND*%
X162268000Y-79860100D03*
%TO.P,U1,12*%
X162268000Y-77320100D03*
%TD*%
D20*
%TO.P,Y1,1*%
%TO.N,Net-(C1-Pad1)*%
X172466000Y-103124000D03*
%TO.P,Y1,2*%
%TO.N,Net-(C2-Pad2)*%
X172466000Y-108024000D03*
%TD*%
D16*
%TO.P,J1,2*%
%TO.N,Net-(J1-Pad2)*%
X145212000Y-108610000D03*
D15*
%TO.P,J1,1*%
%TO.N,Net-(J1-Pad1)*%
X145212000Y-111150000D03*
%TD*%
%TO.P,J2,1*%
%TO.N,Net-(J2-Pad1)*%
X148996000Y-111150000D03*
D16*
%TO.P,J2,2*%
%TO.N,Net-(J2-Pad2)*%
X148996000Y-108610000D03*
%TD*%
D13*
%TO.P,C7,1*%
%TO.N,Net-(C7-Pad1)*%
X173228000Y-85791000D03*
%TO.P,C7,2*%
%TO.N,GND*%
X170728000Y-85791000D03*
%TD*%
D21*
%TO.P,R3,2*%
%TO.N,+3V3*%
X173124000Y-74797900D03*
D22*
%TO.P,R3,1*%
%TO.N,V3.3-micro*%
X171224000Y-74797900D03*
%TD*%
%TO.P,R4,1*%
%TO.N,GND-micro*%
X171173000Y-90515400D03*
D21*
%TO.P,R4,2*%
%TO.N,GND*%
X173073000Y-90515400D03*
%TD*%
D23*
%TO.P,U3,1*%
%TO.N,GND*%
X177999000Y-71062700D03*
%TO.P,U3,2*%
%TO.N,+3V3*%
X177999000Y-72562700D03*
%TO.P,U3,3*%
%TO.N,Net-(C7-Pad1)*%
X177999000Y-74062700D03*
D24*
%TO.P,U3,2*%
%TO.N,+3V3*%
X181959000Y-72562700D03*
%TA.AperFunction,SMDPad,CuDef*%
D25*
G36*
X179984000Y-73562700D02*
G01*
X179234000Y-73062700D01*
X179234000Y-72062700D01*
X179984000Y-71562700D01*
X179984000Y-73562700D01*
G37*
%TD.AperFunction*%
%TD*%
D26*
%TO.N,GND*%
X177358000Y-67541100D03*
%TO.N,Net-(J3-Pad1)*%
X181274720Y-118173500D03*
%TO.N,Net-(U1-Pad2)*%
X152247200Y-93295300D03*
X142148560Y-79867760D03*
%TO.N,Net-(U1-Pad3)*%
X154302460Y-97045780D03*
X142099000Y-83213800D03*
%TO.N,Net-(U1-Pad7)*%
X161764980Y-97589340D03*
X163189920Y-93273880D03*
%TO.N,Net-(U1-Pad8)*%
X161960560Y-113459260D03*
X164757100Y-93479620D03*
%TO.N,Net-(J3-Pad5)*%
X172186600Y-116588540D03*
%TO.N,Net-(J3-Pad4)*%
X179961540Y-116047520D03*
%TO.N,GND-micro*%
X167244900Y-105030400D03*
%TO.N,+3V3*%
X188203840Y-115461620D03*
%TD*%
D27*
%TO.N,GND*%
X162268000Y-79860100D02*
X160601700Y-79860100D01*
X160601700Y-79860100D02*
X159739700Y-80722100D01*
X159739700Y-80722100D02*
X147958900Y-80722100D01*
X147958900Y-80722100D02*
X146154300Y-78917500D01*
X146154300Y-78917500D02*
X146154300Y-77320100D01*
X162268000Y-77320100D02*
X162268000Y-79860100D01*
X144488000Y-77320100D02*
X146154300Y-77320100D01*
X173073000Y-90515400D02*
X173073000Y-91865700D01*
X173073000Y-91865700D02*
X174864000Y-93656700D01*
X174864000Y-93656700D02*
X174864000Y-97536000D01*
X173073000Y-90515400D02*
X173073000Y-88136000D01*
X173073000Y-88136000D02*
X170728000Y-85791000D01*
X172443000Y-67541100D02*
X172443000Y-68196100D01*
X173232100Y-68196100D02*
X172443000Y-68196100D01*
X167074800Y-76978900D02*
X164275500Y-76978900D01*
X164275500Y-76978900D02*
X163934300Y-77320100D01*
X170878000Y-80782100D02*
X167074800Y-76978900D01*
X167074800Y-76978900D02*
X167074800Y-75059600D01*
X162268000Y-77320100D02*
X163934300Y-77320100D01*
X177358000Y-70421700D02*
X177999000Y-71062700D01*
X177999000Y-71062700D02*
X176049000Y-71062700D01*
X167074800Y-75059600D02*
X167134480Y-75059600D01*
X167134480Y-75059600D02*
X169570400Y-72623680D01*
X169570400Y-72623680D02*
X169600880Y-72623680D01*
X171161860Y-71062700D02*
X176049000Y-71062700D01*
X169600880Y-72623680D02*
X171161860Y-71062700D01*
X177358000Y-70421700D02*
X177358000Y-67541100D01*
D28*
%TO.N,Net-(C1-Pad1)*%
X172364000Y-97536000D02*
X166636000Y-103264000D01*
X166636000Y-103264000D02*
X164450000Y-103264000D01*
X172466000Y-103124000D02*
X177445000Y-103124000D01*
X177445000Y-103124000D02*
X177597000Y-102972000D01*
%TO.N,Net-(C2-Pad2)*%
X177569000Y-108024000D02*
X177597000Y-108052000D01*
X172466000Y-108024000D02*
X177569000Y-108024000D01*
X167556000Y-104064000D02*
X164450000Y-104064000D01*
X178274980Y-100883720D02*
X170736280Y-100883720D01*
X180228240Y-102836980D02*
X178274980Y-100883720D01*
X178902900Y-106690100D02*
X178902900Y-106661680D01*
X177569000Y-108024000D02*
X178902900Y-106690100D01*
X178902900Y-106661680D02*
X180218080Y-105346500D01*
X180218080Y-105346500D02*
X180218080Y-103669078D01*
X170736280Y-100883720D02*
X167556000Y-104064000D01*
X180218080Y-103669078D02*
X180228240Y-103658918D01*
X180228240Y-103658918D02*
X180228240Y-102836980D01*
%TO.N,Net-(C5-Pad1)*%
X148844000Y-105156000D02*
X150144300Y-105156000D01*
X150144300Y-105156000D02*
X151452300Y-106464000D01*
X151452300Y-106464000D02*
X153050000Y-106464000D01*
%TO.N,Net-(J1-Pad1)*%
X146875100Y-111150000D02*
X146562300Y-111150000D01*
X146562300Y-111150000D02*
X145212000Y-111150000D01*
X147040600Y-111315500D02*
X146875100Y-111150000D01*
X147040600Y-112715040D02*
X147040600Y-111315500D01*
X151989662Y-109664000D02*
X151523700Y-110129962D01*
X153050000Y-109664000D02*
X151989662Y-109664000D01*
X151523700Y-110129962D02*
X151523700Y-111696500D01*
X151523700Y-111696500D02*
X149750780Y-113469420D01*
X149750780Y-113469420D02*
X147794980Y-113469420D01*
X147794980Y-113469420D02*
X147040600Y-112715040D01*
%TO.N,Net-(J1-Pad2)*%
X146562300Y-108610000D02*
X145212000Y-108610000D01*
X151799700Y-107264000D02*
X151775100Y-107239400D01*
X153050000Y-107264000D02*
X151799700Y-107264000D01*
X151775100Y-107239400D02*
X151026460Y-107239400D01*
X151026460Y-107239400D02*
X150609300Y-106822240D01*
X150609300Y-106822240D02*
X148350060Y-106822240D01*
X148350060Y-106822240D02*
X146562300Y-108610000D01*
%TO.N,Net-(J2-Pad2)*%
X148996000Y-108610000D02*
X150346300Y-108610000D01*
X150346300Y-108610000D02*
X150892300Y-108064000D01*
X150892300Y-108064000D02*
X153050000Y-108064000D01*
%TO.N,Net-(J2-Pad1)*%
X153050000Y-108864000D02*
X151799700Y-108864000D01*
X148996000Y-111150000D02*
X150346300Y-111150000D01*
X150346300Y-111150000D02*
X150346300Y-110317400D01*
X150346300Y-110317400D02*
X151799700Y-108864000D01*
%TO.N,Net-(J3-Pad1)*%
X159550000Y-115938000D02*
X159461000Y-116027000D01*
X159550000Y-111364000D02*
X159550000Y-115938000D01*
X159461000Y-117158370D02*
X160476130Y-118173500D01*
X159461000Y-116027000D02*
X159461000Y-117158370D01*
X160476130Y-118173500D02*
X181274720Y-118173500D01*
%TO.N,Net-(U1-Pad2)*%
X152247200Y-93295300D02*
X152464000Y-93295300D01*
X142156220Y-79860100D02*
X142148560Y-79867760D01*
X152247200Y-93295300D02*
X155271240Y-96319340D01*
X155271240Y-96319340D02*
X155521660Y-96319340D01*
X157150000Y-97947680D02*
X157150000Y-99964000D01*
X155521660Y-96319340D02*
X157150000Y-97947680D01*
X144480340Y-79867760D02*
X144488000Y-79860100D01*
X142148560Y-79867760D02*
X144480340Y-79867760D01*
%TO.N,Net-(U1-Pad3)*%
X144488000Y-82400100D02*
X142912700Y-82400100D01*
X156350000Y-98478500D02*
X156350000Y-99964000D01*
X142099000Y-83213800D02*
X142912700Y-82400100D01*
X154802459Y-97545779D02*
X154302460Y-97045780D01*
X155067542Y-97545779D02*
X154802459Y-97545779D01*
X156000263Y-98478500D02*
X155067542Y-97545779D01*
X156350000Y-98478500D02*
X156000263Y-98478500D01*
%TO.N,Net-(U1-Pad4)*%
X155550000Y-99018200D02*
X155550000Y-99964000D01*
X141668540Y-84940100D02*
X141094460Y-85514180D01*
X144488000Y-84940100D02*
X141668540Y-84940100D01*
X141094460Y-85514180D02*
X141094460Y-89375060D01*
X141094460Y-89375060D02*
X150307800Y-98588400D01*
X150307800Y-98588400D02*
X155120200Y-98588400D01*
X155120200Y-98588400D02*
X155550000Y-99018200D01*
%TO.N,Net-(U1-Pad5)*%
X155255400Y-87480100D02*
X144488000Y-87480100D01*
X156512220Y-87480100D02*
X155255400Y-87480100D01*
X161612580Y-92580460D02*
X156512220Y-87480100D01*
X161612580Y-93365320D02*
X161612580Y-92580460D01*
X162750000Y-99964000D02*
X162750000Y-94502740D01*
X162750000Y-94502740D02*
X161612580Y-93365320D01*
%TO.N,Net-(U1-Pad6)*%
X161894520Y-95862140D02*
X161894520Y-94800420D01*
X161150000Y-98814000D02*
X160595900Y-98259900D01*
X157114200Y-90020100D02*
X144488000Y-90020100D01*
X161150000Y-99964000D02*
X161150000Y-98814000D01*
X160595900Y-98259900D02*
X160591500Y-98259900D01*
X161894520Y-94800420D02*
X157114200Y-90020100D01*
X160213040Y-97881440D02*
X160213040Y-97543620D01*
X160591500Y-98259900D02*
X160213040Y-97881440D01*
X160213040Y-97543620D02*
X161894520Y-95862140D01*
%TO.N,Net-(U1-Pad7)*%
X162268000Y-90020100D02*
X162268000Y-91536400D01*
X161950000Y-97774360D02*
X161764980Y-97589340D01*
X161950000Y-99964000D02*
X161950000Y-97774360D01*
X163189920Y-92458320D02*
X163189920Y-93273880D01*
X162268000Y-91536400D02*
X163189920Y-92458320D01*
%TO.N,Net-(U1-Pad8)*%
X161950000Y-111364000D02*
X161950000Y-112614300D01*
X161960560Y-112624860D02*
X161960560Y-113459260D01*
X161950000Y-112614300D02*
X161960560Y-112624860D01*
X165298080Y-87480100D02*
X162268000Y-87480100D01*
X165907720Y-88089740D02*
X165298080Y-87480100D01*
X165907720Y-91621894D02*
X165907720Y-88089740D01*
X164757100Y-92772514D02*
X165907720Y-91621894D01*
X164757100Y-93479620D02*
X164757100Y-92772514D01*
%TO.N,Net-(J3-Pad5)*%
X164450000Y-109664000D02*
X165700300Y-109664000D01*
X167554800Y-112003100D02*
X165700300Y-110148600D01*
X165700300Y-110148600D02*
X165700300Y-109664000D01*
X172186600Y-116588540D02*
X172186600Y-116588540D01*
X167601160Y-112003100D02*
X172186600Y-116588540D01*
X167554800Y-112003100D02*
X167601160Y-112003100D01*
%TO.N,Net-(J3-Pad4)*%
X179961540Y-116047520D02*
X179961540Y-116047520D01*
X175715500Y-110221600D02*
X179961540Y-114467640D01*
X179961540Y-114467640D02*
X179961540Y-116047520D01*
X165700300Y-108864000D02*
X165700300Y-107739300D01*
X164450000Y-108864000D02*
X165700300Y-108864000D01*
X167109700Y-106329900D02*
X168112900Y-106329900D01*
X168112900Y-106329900D02*
X172004600Y-110221600D01*
X165700300Y-107739300D02*
X167109700Y-106329900D01*
X172004600Y-110221600D02*
X175715500Y-110221600D01*
%TO.N,V3.3-micro*%
X157840000Y-95412600D02*
X157950000Y-95522600D01*
X157950000Y-95522600D02*
X157950000Y-99964000D01*
X162799700Y-106064000D02*
X163199700Y-105664000D01*
X158750000Y-111364000D02*
X158750000Y-110113700D01*
X158750000Y-110113700D02*
X162799700Y-106064000D01*
X162799700Y-106064000D02*
X157950000Y-101214300D01*
X157950000Y-99964000D02*
X157950000Y-101214300D01*
X158750000Y-112852000D02*
X158750000Y-111364000D01*
X164450000Y-105664000D02*
X163199700Y-105664000D01*
X155600000Y-116002000D02*
X158750000Y-112852000D01*
%TO.N,GND-micro*%
X153050000Y-105664000D02*
X151799700Y-105664000D01*
X148844000Y-102656000D02*
X151799700Y-105611700D01*
X151799700Y-105611700D02*
X151799700Y-105664000D01*
X153050000Y-105664000D02*
X154300300Y-105664000D01*
X154300300Y-105664000D02*
X157950000Y-109313700D01*
X157950000Y-109313700D02*
X157950000Y-111364000D01*
X164450000Y-104864000D02*
X162693400Y-104864000D01*
X162693400Y-104864000D02*
X158750000Y-100920600D01*
X158750000Y-100920600D02*
X158750000Y-99964000D01*
X153100000Y-116002000D02*
X156273400Y-112828600D01*
X156273400Y-112828600D02*
X157560600Y-112828600D01*
X157560600Y-112828600D02*
X157950000Y-112439200D01*
X157950000Y-111364000D02*
X157950000Y-112439200D01*
X167078500Y-104864000D02*
X167244900Y-105030400D01*
X164450000Y-104864000D02*
X167078500Y-104864000D01*
D27*
%TO.N,+3V3*%
X177999000Y-72562700D02*
X176098700Y-72562700D01*
X173124000Y-74797900D02*
X174474300Y-74797900D01*
X176098700Y-72562700D02*
X174474300Y-74187100D01*
X174474300Y-74187100D02*
X174474300Y-74797900D01*
X179609000Y-72562700D02*
X177999000Y-72562700D01*
X173378000Y-80782100D02*
X171760000Y-82400100D01*
X173124000Y-76148200D02*
X173378000Y-76402200D01*
X173378000Y-76402200D02*
X173378000Y-80782100D01*
X173124000Y-74797900D02*
X173124000Y-76148200D01*
X181959000Y-72562700D02*
X179609000Y-72562700D01*
X171760000Y-82400100D02*
X162268000Y-82400100D01*
X188203840Y-114895935D02*
X188203840Y-113162080D01*
X188203840Y-114895935D02*
X188203840Y-115461620D01*
%TO.N,Net-(C7-Pad1)*%
X173228000Y-85791000D02*
X177551120Y-85791000D01*
X177999000Y-85343120D02*
X177999000Y-74062700D01*
X177551120Y-85791000D02*
X177999000Y-85343120D01*
%TD*%
D29*
%TO.N,+3V3*%
X218444447Y-71643983D02*
X218454399Y-71692527D01*
X218482170Y-71733567D01*
X218523532Y-71760855D01*
X218572830Y-71770232D01*
X226827921Y-71680190D01*
X226895456Y-113705990D01*
X186920486Y-113816425D01*
X186891593Y-113774216D01*
X186805398Y-113718010D01*
X186729596Y-113648415D01*
X186659333Y-113622764D01*
X186596679Y-113581909D01*
X186495535Y-113562967D01*
X186398871Y-113527678D01*
X186236909Y-113534592D01*
X185775600Y-113539766D01*
X185775600Y-96479360D01*
X185765933Y-96430759D01*
X185738403Y-96389557D01*
X185697201Y-96362027D01*
X185648600Y-96352360D01*
X179276106Y-96352360D01*
X179331255Y-77210654D01*
X181615348Y-77205840D01*
X181663928Y-77196070D01*
X181705072Y-77168453D01*
X181732515Y-77127193D01*
X181742074Y-77080109D01*
X181873005Y-63981971D01*
X182270227Y-63946302D01*
X182271750Y-63948882D01*
X182311352Y-63978668D01*
X182366917Y-63991229D01*
X208031856Y-63891355D01*
X218399065Y-63890506D01*
X218444447Y-71643983D01*
%TA.AperFunction,Conductor*%
D30*
G36*
X218444447Y-71643983D02*
G01*
X218454399Y-71692527D01*
X218482170Y-71733567D01*
X218523532Y-71760855D01*
X218572830Y-71770232D01*
X226827921Y-71680190D01*
X226895456Y-113705990D01*
X186920486Y-113816425D01*
X186891593Y-113774216D01*
X186805398Y-113718010D01*
X186729596Y-113648415D01*
X186659333Y-113622764D01*
X186596679Y-113581909D01*
X186495535Y-113562967D01*
X186398871Y-113527678D01*
X186236909Y-113534592D01*
X185775600Y-113539766D01*
X185775600Y-96479360D01*
X185765933Y-96430759D01*
X185738403Y-96389557D01*
X185697201Y-96362027D01*
X185648600Y-96352360D01*
X179276106Y-96352360D01*
X179331255Y-77210654D01*
X181615348Y-77205840D01*
X181663928Y-77196070D01*
X181705072Y-77168453D01*
X181732515Y-77127193D01*
X181742074Y-77080109D01*
X181873005Y-63981971D01*
X182270227Y-63946302D01*
X182271750Y-63948882D01*
X182311352Y-63978668D01*
X182366917Y-63991229D01*
X208031856Y-63891355D01*
X218399065Y-63890506D01*
X218444447Y-71643983D01*
G37*
%TD.AperFunction*%
%TD*%
M02*
